<svg height="512pt" viewBox="0 0 512.00007 512" width="512pt" xmlns="http://www.w3.org/2000/svg"><path d="m321.214844 0-119.085938 120.339844 10.046875 30.136718c-4.09375-.34375-8.1875-.839843-12.269531-.839843h-122.652344c-47.011718 0-83.105468 41.988281-76.464844 88.472656 5.921876 41.445313 43.261719 69.609375 83.199219 66.050781-11.847656 35.113282-8.535156 69.5 9.03125 94.8125l-43.347656 43.347656 21.199219 21.199219 43.367187-43.367187c15.304688 10.621094 33.910157 16.054687 54.007813 16.054687 12.449218 0 25.46875-2.089843 38.609375-6.292969l.1875.1875c-2.082031 38.8125 25.632812 74.703126 66.242187 80.503907 46.507813 6.644531 87.476563-29.480469 87.476563-76.460938v-122.65625c0-3.695312.550781-7.371093.304687-11.023437l31.835938 10.613281 119.097656-119.097656-47.675781-143.023438zm20.277344 234.050781c-7.152344-12.867187-16.136719-24.820312-26.832032-35.519531-10.511718-10.507812-22.515625-19.554688-35.429687-26.894531 17.453125-11.566407 41.261719-9.667969 56.625 5.695312 15.394531 15.394531 17.269531 39.257813 5.636719 56.71875zm-226.574219 61.523438.242187-.089844-.039062-.105469 30.328125-11.667968 82.234375 82.234374-11.773438 30.621094zm129.414062 27.089843-4.871093 12.664063-63.390626-63.394531 30.621094-11.777344 44.546875 44.550781zm-7.019531-74.285156 41.769531-16.066406-16.066406 41.773438zm-206.84375-14.507812c-4.070312-28.476563 18.054688-54.253906 46.785156-54.253906h122.652344c25.0625 0 50.855469 8.566406 72.683594 23.074218l-178.371094 68.605469c-28.371094 10.910156-59.460938-7.398437-63.75-37.425781zm93.398438 155.453125c-14.023438-14.027344-19.417969-35.003907-15.785157-58.183594l73.96875 73.96875c-23.179687 3.628906-44.160156-1.761719-58.183593-15.785156zm153.660156 91.605469c-30.03125-4.292969-48.335938-35.382813-37.425782-63.75l46.113282-119.898438 22.679687-58.972656c14.671875 21.394531 21.886719 46.675781 21.886719 73.179687v122.65625c0 28.761719-24.8125 50.84375-53.253906 46.785157zm107.277344-204.152344-29.644532-9.882813c-.222656-.773437-.445312-1.546875-.679687-2.320312 27.371093-24.914063 31.839843-65.164063 13.152343-95.113281 6.449219-3.460938 13.695313-5.300782 21.222657-5.300782 12.011719 0 23.304687 4.679688 31.796875 13.171875l21.199218-21.199219c-14.152343-14.15625-32.976562-21.949218-52.996093-21.949218-3.585938 0-7.136719.25-10.625.742187 3.191406-22.550781-3.867188-46.28125-21.171875-63.585937l-21.199219 21.195312c14.324219 14.332032 16.9375 35.996094 7.851563 53.011719-29.75-18.554687-69.640626-14.269531-94.605469 12.640625-1.03125-.34375-2.058594-.683594-3.09375-1.003906l-9.613281-28.851563 92.902343-93.882812 111.277344 38.070312 37.121094 111.363281zm0 0"/></svg>